# xmcd CD database file
#
# Track frame offsets:
#	172
#	12398
#	26467
#	42124
#	56808
#	73746
#	87659
#	103444
#	117517
#	129510
#
# Disc length: 1947 seconds
#
# Revision: 0
# Processed by: cddbd v1.5.1PL0 Copyright (c) Steve Scherf et al.
# Submitted via: CDex 1.51
#
DISCID=9107990a
DTITLE=Pete Martinez - Changes
DYEAR=2002
DGENRE=Country
TTITLE0=Who Changed Your Tune
TTITLE1=I Wasn't Ready For You
TTITLE2=I Can't Help It (If I'm Still In Love With You
TTITLE3=Bury My Heart
TTITLE4=Both Sides Of Goodbye
TTITLE5=I Was Lookin' For Love When I Found You
TTITLE6=Honky Tonk Blues
TTITLE7=She Does
TTITLE8=Love Simplified
TTITLE9=That's Where I Wanna Take Our Love
EXTD=YEAR: 2002
EXTT0=
EXTT1=
EXTT2=
EXTT3=
EXTT4=
EXTT5=
EXTT6=
EXTT7=
EXTT8=
EXTT9=
PLAYORDER=
